<svg width="1680" height="676" viewBox="0 0 1680 676" fill="none" xmlns="http://www.w3.org/2000/svg">
<path opacity="0.8" d="M64 1.52441L-87 222.08" stroke="#009FD6"/>
<path opacity="0.8" d="M64 0.64209L-82 340.297" stroke="#009FD6"/>
<path opacity="0.8" d="M63 0.64209L499 567.91" stroke="#009FD6"/>
<path opacity="0.8" d="M-207 275.895L181.71 160.324L368 187.077" stroke="#009FD6"/>
<path opacity="0.8" d="M-7 316.477L269 267.073" stroke="#009FD6"/>
<path opacity="0.8" d="M-81 549.384L371 186.791" stroke="#009FD6"/>
<path opacity="0.8" d="M305 486.746L405 319.124" stroke="#009FD6"/>
<path opacity="0.8" d="M493.473 262.662L585 147.973L368 185.931" stroke="#009FD6"/>
<path opacity="0.8" d="M143.696 521.792L371.813 610.674L500 567.844L494.948 262.662L226.418 302.404L205.738 655.25L-80 332.479" stroke="#009FD6"/>
<path opacity="0.8" d="M498.25 567.737L602.5 516.741L727 576.776L298.607 650.571L141.203 521.463L-104 662.308" stroke="#009FD6"/>
<path opacity="0.8" d="M-94.0015 675.541L31 461.161L-187 461.43" stroke="#009FD6"/>
<path opacity="0.8" d="M-108 538.797L-35.2816 572.321L106 544.076" stroke="#009FD6"/>
<path opacity="0.8" d="M585.627 147.973L642 288.246L494 262.19" stroke="#009FD6"/>
<path opacity="0.8" d="M299 650.839L370.25 611.216L727.769 577.369L588.91 419.417L603.16 517.6L559.301 593.353L498.818 568.37L588.91 419.417L601.577 398.464L641.318 288.998L1220.66 220.364L1431.25 268.986L1873 115.331L1735.25 646.541" stroke="#009FD6"/>
<path opacity="0.8" d="M551 372.939L787 489.187L712.306 505.272" stroke="#009FD6"/>
<path opacity="0.8" fill-rule="evenodd" clip-rule="evenodd" d="M632.564 651.721L709.928 505.253L550 373.822L587.816 419.064L632.564 651.721Z" stroke="#009FD6"/>
<path opacity="0.8" d="M603 398.524L709.944 405.276L787.304 490.218L897.254 501.832L902 653.486L787.304 490.218" stroke="#009FD6"/>
<path opacity="0.8" d="M898.209 502.297L711.147 406.231L644 290.011L1072 649.957L920.96 434.983L644 290.011" stroke="#009FD6"/>
<path opacity="0.8" d="M920.886 434.695L980.014 392.603L643 289.128L1110 300.461" stroke="#009FD6"/>
<path opacity="0.8" d="M1020.39 244.007L978 392.348L1219.6 220.315L1230 378.079L978 389.521" stroke="#009FD6"/>
<path opacity="0.8" d="M1408 490.275L1443.44 595.201L1658 649.957" stroke="#009FD6"/>
<path opacity="0.8" d="M1293 646.428L1443 593.495" stroke="#009FD6"/>
<path opacity="0.8" d="M1179 651.721L1050.57 342.944L902 651.587" stroke="#009FD6"/>
<path opacity="0.8" d="M1049.69 343.457L1070.77 648.672L1231.82 377.817L1295.54 647.464L1408.56 490.159L1520.94 472.71L1659 649.075L1021 244.135" stroke="#009FD6"/>
<path opacity="0.8" d="M979 392.348L1071 649.075" stroke="#009FD6"/>
<path opacity="0.8" d="M999 448.81L1058.1 475.746L1131 544.972" stroke="#009FD6"/>
<path opacity="0.8" d="M1432 269.974L1267.02 278.732L1230.52 379.115L1344.81 360.655L1432 269.974L1267.02 278.732L1220 221.197" stroke="#009FD6"/>
<path opacity="0.8" d="M1231 378.233L1432 267.955" stroke="#009FD6"/>
<path opacity="0.8" d="M1607.71 234.495L1873 115.331L1532 310.217L1658.65 649.957" stroke="#009FD6"/>
<path opacity="0.8" d="M1430.93 267.435L1607 232.666L1530.72 308.539L1430.93 267.435L1429.81 327.001L1344 358.132L1431.56 397.079L1530.72 308.539L1407.25 489.393L1431.56 397.079L1429.81 327.001L1530.72 308.539L1519.92 471.873" stroke="#009FD6"/>
<path opacity="0.8" fill-rule="evenodd" clip-rule="evenodd" d="M1604 267.981L1844 225.608L1718.55 298.833L1604 267.981Z" stroke="#009FD6"/>
<path opacity="0.8" d="M1885 660.543L1771.86 508.871L1622.11 551.668L1718.21 300.271L1566.57 402.552L1603.81 268.913L1607.75 234.192L1544 230.02" stroke="#009FD6"/>
<path opacity="0.8" d="M1566 401.17L1644.88 373.701L1717 298.833" stroke="#009FD6"/>
<path opacity="0.8" d="M1645.63 374.73L1622 551.148L1843 225.608" stroke="#009FD6"/>
<path opacity="0.8" d="M63 0.64209L495 261.78" stroke="#009FD6"/>
<path opacity="0.8" d="M182.77 159.442L-6 315.783L142.364 522.799L405 318.209L370.434 612.021L303.355 486.275L142.364 522.799" stroke="#009FD6"/>
</svg>
